<svg xmlns="http://www.w3.org/2000/svg" xmlns:xlink="http://www.w3.org/1999/xlink" width="768.301" height="795.188" viewBox="0 0 768.301 795.188">
  <defs>
    <style>
      .cls-1, .cls-3 {
        fill: none;
      }

      .cls-2 {
        isolation: isolate;
        clip-path: url(#clip-path);
      }

      .cls-3, .cls-5 {
        stroke: #054a85;
      }

      .cls-3 {
        stroke-width: 25px;
      }

      .cls-4 {
        fill: #cce7ff;
      }

      .cls-5 {
        fill: #fff;
        stroke-width: 35px;
      }

      .cls-6 {
        stroke: none;
      }
    </style>
    <clipPath id="clip-path">
      <rect class="cls-1" x="100" width="768.301" height="795.188"/>
    </clipPath>
  </defs>
  <g id="Scroll_Group_2" data-name="Scroll Group 2" class="cls-2" transform="translate(-100)">
    <g id="Group_13" data-name="Group 13" transform="translate(-44.683 -308.219)">
      <g id="Rectangle_5" data-name="Rectangle 5" class="cls-3" transform="translate(666.447 554.756) rotate(-90)">
        <rect class="cls-6" width="221.537" height="221.537" rx="3"/>
        <rect class="cls-1" x="-12.5" y="-12.5" width="246.537" height="246.537" rx="15.5"/>
      </g>
      <path id="Path_7" data-name="Path 7" class="cls-4" d="M185.226,132.261h107.93a18.774,18.774,0,0,1,18.774,18.774V271.191a18.774,18.774,0,0,1-18.774,18.774H173a18.774,18.774,0,0,1-18.774-18.774V162.139C154.225,146.463,0,0,0,0Z" transform="translate(566.101 677.065) rotate(-90)"/>
      <g id="Group_6" data-name="Group 6" transform="translate(44.683 462.838)">
        <g id="Ellipse_6" data-name="Ellipse 6" class="cls-5" transform="translate(359.766 745.568) rotate(-133)">
          <circle class="cls-6" cx="263.759" cy="263.759" r="263.759"/>
          <circle class="cls-1" cx="263.759" cy="263.759" r="246.259"/>
        </g>
        <path id="Path_8" data-name="Path 8" class="cls-4" d="M184.1,0A184.1,184.1,0,0,1,368.2,184.1c0,74.121-43.8,138.011-109.021,168.144-15.182,7.03-38.446,175.588-38.446,175.588l-14.019,1.342s-70.536-171.112-72.39-171.31C65.672,333.08,0,263.811,0,184.1A184.1,184.1,0,0,1,184.1,0Z" transform="translate(366.315 630.175) rotate(-133)"/>
      </g>
    </g>
  </g>
</svg>
